<svg xmlns="http://www.w3.org/2000/svg" height="16" width="14" viewBox="0 0 448 512">
    <!--!Font Awesome Free 6.5.1 por @fontawesome - https://fontawesome.com Licencia - https://fontawesome.com/license/free Copyright 2024 Fonticons, Inc.-->
    <path opacity="1" fill="#4f5665" d="M128 136c0-22.1-17.9-40-40-40L40 96C17.9 96 0 113.9 0 136l0 48c0 22.1 17.9 40 40 40H88c22.1 0 40-17.9 40-40l0-48zm0 192c0-22.1-17.9-40-40-40H40c-22.1 0-40 17.9-40 40l0 48c0 22.1 17.9 40 40 40H88c22.1 0 40-17.9 40-40V328zm32-192v48c0 22.1 17.9 40 40 40h48c22.1 0 40-17.9 40-40V136c0-22.1-17.9-40-40-40l-48 0c-22.1 0-40 17.9-40 40zM288 328c0-22.1-17.9-40-40-40H200c-22.1 0-40 17.9-40 40l0 48c0 22.1 17.9 40 40 40h48c22.1 0 40-17.9 40-40V328zm32-192v48c0 22.1 17.9 40 40 40h48c22.1 0 40-17.9 40-40V136c0-22.1-17.9-40-40-40l-48 0c-22.1 0-40 17.9-40 40zM448 328c0-22.1-17.9-40-40-40H360c-22.1 0-40 17.9-40 40v48c0 22.1 17.9 40 40 40h48c22.1 0 40-17.9 40-40V328z"/>
</svg>
