<?xml version="1.0" standalone="no"?>
<!DOCTYPE svg PUBLIC "-//W3C//DTD SVG 20010904//EN"
 "http://www.w3.org/TR/2001/REC-SVG-20010904/DTD/svg10.dtd">
<svg version="1.0" xmlns="http://www.w3.org/2000/svg"
 width="256.000000pt" height="256.000000pt" viewBox="0 0 256.000000 256.000000"
 preserveAspectRatio="xMidYMid meet">
<metadata>
Created by potrace 1.14, written by Peter Selinger 2001-2017
</metadata>
<g transform="translate(0.000000,256.000000) scale(0.100000,-0.100000)"
fill="#000000" stroke="none">
<path d="M895 2082 c-11 -2 -49 -15 -85 -29 -233 -92 -367 -284 -375 -536 l-3
-97 -39 -32 c-136 -113 -172 -333 -81 -488 61 -103 178 -180 291 -192 l27 -3
-38 -50 c-50 -66 -56 -91 -29 -110 33 -23 43 -19 91 43 25 31 55 67 66 79 11
12 20 26 20 30 0 4 12 22 28 38 15 17 34 40 42 52 13 19 124 163 475 617 61
79 121 157 135 176 14 18 67 87 119 154 118 153 123 162 92 187 -34 28 -44 24
-86 -27 -34 -41 -39 -44 -48 -28 -19 37 -115 120 -174 151 -96 51 -186 72
-305 70 -57 0 -112 -3 -123 -5z m205 -66 c19 -3 46 -8 58 -11 83 -16 237 -128
277 -201 18 -31 18 -32 -11 -68 -16 -20 -31 -36 -34 -36 -3 0 -21 15 -41 33
-20 17 -57 50 -84 72 -26 22 -64 55 -84 73 -20 18 -64 56 -98 84 -60 49 -72
70 -35 64 9 -2 33 -6 52 -10z m-158 -14 c2 -4 66 -62 143 -127 77 -66 145
-124 151 -130 6 -6 35 -31 63 -55 28 -24 51 -46 51 -49 -1 -3 -14 -21 -30 -40
l-29 -34 -67 59 c-37 33 -79 70 -93 83 -14 13 -46 40 -71 60 -24 20 -51 43
-60 51 -22 21 -135 118 -162 140 l-22 17 45 16 c50 18 76 21 81 9z m-166 -77
c4 -8 10 -15 16 -15 5 0 15 -6 22 -13 7 -7 41 -37 76 -67 35 -30 73 -64 85
-75 36 -32 73 -64 178 -153 53 -46 97 -86 97 -88 0 -13 -64 -83 -69 -77 -3 5
-35 33 -71 63 -36 30 -72 61 -81 70 -9 8 -38 33 -64 55 -27 22 -69 59 -94 82
-25 23 -49 43 -52 43 -3 0 -21 15 -40 33 -19 17 -50 45 -69 61 l-35 29 39 33
c44 38 54 41 62 19z m-62 -170 c32 -27 68 -59 80 -70 12 -11 46 -40 76 -65 29
-25 58 -49 64 -55 6 -5 57 -50 114 -99 91 -79 101 -90 89 -105 -8 -9 -23 -26
-33 -38 -10 -13 -21 -23 -25 -23 -6 0 -31 20 -84 68 -16 15 -73 63 -125 107
-52 44 -104 89 -116 100 -28 26 -81 73 -133 115 -22 19 -41 39 -41 45 0 6 11
27 26 48 29 43 27 43 108 -28z m-109 -136 c27 -24 98 -86 165 -143 293 -250
277 -233 250 -261 -11 -12 -20 -26 -20 -32 0 -18 -25 -22 -45 -6 -11 7 -45 36
-75 63 -30 26 -93 81 -140 120 -47 40 -114 98 -148 128 l-64 56 7 44 c12 81
14 82 70 31z m-41 -191 c16 -15 45 -41 146 -127 41 -36 80 -70 86 -75 6 -6 29
-26 52 -44 23 -19 52 -44 65 -56 l24 -22 -33 -42 -32 -42 -34 27 c-18 15 -38
32 -44 38 -11 10 -88 76 -134 115 -14 12 -52 45 -84 73 -33 29 -68 58 -79 66
-19 13 -18 15 13 39 21 17 30 31 27 43 -6 22 8 25 27 7z m-86 -155 c37 -34 85
-77 143 -125 24 -20 53 -44 65 -55 12 -10 49 -42 82 -72 l62 -53 -28 -39 c-15
-21 -30 -39 -35 -39 -7 0 -178 140 -202 166 -5 6 -41 37 -80 70 -109 93 -106
89 -99 110 13 34 36 64 49 64 7 0 26 -12 43 -27z m41 -262 c221 -190 207 -175
188 -205 -14 -21 -23 -24 -54 -20 -150 18 -266 127 -289 269 -11 67 -11 69 -6
78 5 11 14 4 161 -122z"/>
<path d="M1659 1759 c-16 -17 -27 -34 -24 -37 3 -3 24 -7 47 -9 58 -5 119 -34
167 -81 44 -43 91 -131 91 -173 0 -32 11 -41 70 -60 59 -18 137 -83 172 -142
78 -133 44 -320 -74 -409 -83 -62 -72 -61 -661 -62 l-538 -1 -24 -30 c-13 -17
-23 -34 -22 -39 4 -11 1064 -12 1123 -2 21 5 45 12 52 18 6 6 12 8 12 4 0 -3
23 9 52 26 294 181 264 586 -54 707 -18 7 -28 20 -33 43 -26 119 -140 234
-260 262 -16 4 -38 9 -48 12 -11 4 -28 -6 -48 -27z"/>
</g>
</svg>
